<svg width="58" height="61" viewBox="0 0 58 61" fill="none" xmlns="http://www.w3.org/2000/svg">
<rect x="0.473358" y="0.15081" width="56.5376" height="56.5376" fill="#2C333C"/>
<path fill-rule="evenodd" clip-rule="evenodd" d="M16.1783 12.6526H25.9681V33.6068H16.1783V12.6526Z" fill="#014F8C"/>
<g filter="url(#filter0_d)">
<path fill-rule="evenodd" clip-rule="evenodd" d="M16.1783 46.8438V36.9961H25.9692C28.9486 36.9924 31.8466 35.4448 33.443 32.6808C34.228 31.3202 34.6004 29.8336 34.5989 28.3665C34.6004 26.8993 34.228 25.4127 33.443 24.0516C31.8466 21.2876 28.9486 19.74 25.9692 19.7362H16.1783V9.88857H25.7843C32.2286 9.8312 38.5209 13.151 41.9713 19.128C43.6529 22.0416 44.4503 25.2252 44.4471 28.3665C44.4503 31.5077 43.6529 34.6913 41.9713 37.6043C38.5209 43.5814 32.2286 46.9012 25.7843 46.8438H16.1783Z" fill="url(#paint0_linear)"/>
</g>
<defs>
<filter id="filter0_d" x="6.17825" y="3.88784" width="48.2688" height="56.9567" filterUnits="userSpaceOnUse" color-interpolation-filters="sRGB">
<feFlood flood-opacity="0" result="BackgroundImageFix"/>
<feColorMatrix in="SourceAlpha" type="matrix" values="0 0 0 0 0 0 0 0 0 0 0 0 0 0 0 0 0 0 127 0"/>
<feOffset dy="4"/>
<feGaussianBlur stdDeviation="5"/>
<feColorMatrix type="matrix" values="0 0 0 0 0 0 0 0 0 0 0 0 0 0 0 0 0 0 0.25 0"/>
<feBlend mode="normal" in2="BackgroundImageFix" result="effect1_dropShadow"/>
<feBlend mode="normal" in="SourceGraphic" in2="effect1_dropShadow" result="shape"/>
</filter>
<linearGradient id="paint0_linear" x1="30.3127" y1="46.8445" x2="30.3127" y2="9.88784" gradientUnits="userSpaceOnUse">
<stop stop-color="#0060AA"/>
<stop offset="1" stop-color="#0078D7"/>
</linearGradient>
</defs>
</svg>
